<svg xmlns="http://www.w3.org/2000/svg" viewBox="0 0 1600 900" role="img" aria-labelledby="t d"><title id="t">Arizona 38, BYU 35</title><desc id="d">Original JNN fourth-quarter comeback graphic.</desc><defs><linearGradient id="b"><stop stop-color="#071a33"/><stop offset=".52" stop-color="#182844"/><stop offset="1" stop-color="#8c1d40"/></linearGradient><pattern id="p" width="80" height="80" patternUnits="userSpaceOnUse"><path d="M0 80 80 0M-20 20 20-20M60 100 100 60" stroke="#fff" stroke-opacity=".05" stroke-width="3"/></pattern></defs><rect width="1600" height="900" fill="url(#b)"/><rect width="1600" height="900" fill="url(#p)"/><path d="M0 900V630L760 100l840 580v220Z" fill="#000" opacity=".35"/><text x="85" y="100" fill="#ef3340" font-family="Arial,sans-serif" font-size="29" font-weight="700" letter-spacing="8">JNN FINAL · WEEK 2</text><text x="85" y="205" fill="#fff" font-family="Arial Black,Arial,sans-serif" font-size="75">FOURTH-QUARTER THEFT.</text><g transform="translate(85 285)"><rect width="660" height="270" rx="12" fill="#fff"/><text x="38" y="65" fill="#8c1d40" font-family="Arial,sans-serif" font-size="30" font-weight="700" letter-spacing="7">ARIZONA</text><text x="35" y="225" fill="#071a33" font-family="Arial Black,Arial,sans-serif" font-size="168">38</text></g><g transform="translate(855 285)"><rect width="660" height="270" rx="12" fill="#002e5d" stroke="#fff" stroke-width="3"/><text x="38" y="65" fill="#fff" font-family="Arial,sans-serif" font-size="30" font-weight="700" letter-spacing="7">NO. 10 BYU</text><text x="35" y="225" fill="#fff" font-family="Arial Black,Arial,sans-serif" font-size="168">35</text></g><text x="800" y="475" text-anchor="middle" fill="#ef3340" font-family="Arial Black,Arial,sans-serif" font-size="48">FINAL</text><text x="85" y="665" fill="#fff" font-family="Arial Black,Arial,sans-serif" font-size="51">24 UNANSWERED IN THE FOURTH</text><text x="85" y="730" fill="#cbd5e1" font-family="Arial,sans-serif" font-size="31">FIFITA: 304 YDS · 4 TD  |  BYU: 4 INTERCEPTIONS  |  TIGER BACHMEIER: 153 REC YDS</text><rect x="85" y="792" width="480" height="58" fill="#ef3340"/><text x="325" y="832" text-anchor="middle" fill="#fff" font-family="Arial Black,Arial,sans-serif" font-size="25">ARIZONA ERASES 35–14 DEFICIT</text><text x="1510" y="840" text-anchor="end" fill="#fff" font-family="Arial Black,Arial,sans-serif" font-size="40">JNN</text></svg>
