<svg xmlns="http://www.w3.org/2000/svg" viewBox="0 0 1600 900"><defs><linearGradient id="g" x2="1" y2="1"><stop stop-color="#061a35"/><stop offset="1" stop-color="#142c4b"/></linearGradient><pattern id="p" width="80" height="80" patternUnits="userSpaceOnUse"><path d="M0 80L80 0M-20 20L20-20M60 100L100 60" stroke="#fff" stroke-opacity=".035" stroke-width="2"/></pattern></defs><rect width="1600" height="900" fill="url(#g)"/><rect width="1600" height="900" fill="url(#p)"/><path fill="#ed1739" d="M0 0h1600v42H0zM0 820h1600v80H0z"/><g fill="#fff"><text x="100" y="160" font-family="Arial Black,Arial" font-size="38" letter-spacing="12">JNN • 2026</text><text x="100" y="350" font-family="Arial Black,Arial" font-size="125">THE ROAD</text><text x="100" y="485" font-family="Arial Black,Arial" font-size="125">IS OFFICIAL.</text></g><g transform="translate(100 590)"><rect width="1400" height="130" rx="18" fill="#fff" fill-opacity=".08"/><g fill="none" stroke="#fff" stroke-width="10"><circle cx="120" cy="65" r="32"/><circle cx="410" cy="65" r="32"/><circle cx="700" cy="65" r="32"/><circle cx="990" cy="65" r="32"/><circle cx="1280" cy="65" r="32"/></g><path d="M152 65h226m64 0h226m64 0h226m64 0h226" stroke="#ed1739" stroke-width="8" stroke-dasharray="18 15"/></g><text x="100" y="790" fill="#fff" font-family="Arial" font-size="28" letter-spacing="6">FIVE PROGRAMS • ONE SEASON • ZERO QUIET SATURDAYS</text></svg>
