<svg xmlns="http://www.w3.org/2000/svg" viewBox="0 0 1600 900"><defs><linearGradient id="bg" x2="1" y2="1"><stop stop-color="#061a35"/><stop offset=".55" stop-color="#102b4c"/><stop offset="1" stop-color="#ed1739"/></linearGradient><filter id="glow"><feGaussianBlur stdDeviation="7" result="b"/><feMerge><feMergeNode in="b"/><feMergeNode in="SourceGraphic"/></feMerge></filter></defs><rect width="1600" height="900" fill="url(#bg)"/><g opacity=".13" stroke="#fff" stroke-width="5"><path d="M-100 160h900L650 280h1050M-100 400h720L470 520h1230M-100 650h900L650 780h1050"/><path d="M250 0L50 900M600 0L400 900M950 0L750 900M1300 0L1100 900"/></g><text x="90" y="120" fill="#fff" font-family="Arial Black,Arial" font-size="34" letter-spacing="11">JNN SPEED LAB • PRESEASON</text><text x="80" y="315" fill="#fff" font-family="Arial Black,Arial" font-size="150" font-style="italic">SNEAKY</text><text x="80" y="455" fill="#fff" font-family="Arial Black,Arial" font-size="150" font-style="italic">SPEED.</text><path d="M90 505h970" stroke="#ed1739" stroke-width="16"/><g font-family="Arial,Helvetica" fill="#fff"><text x="95" y="570" font-size="30" letter-spacing="3">FOUR PROGRAMS. TWO 99s. NO SAFE ANGLES.</text></g><g transform="translate(90 645)" font-family="Arial Black,Arial"><g><circle cx="90" cy="80" r="74" fill="#73000a" stroke="#fff" stroke-width="6"/><text x="90" y="72" text-anchor="middle" fill="#fff" font-size="27">HARBOR</text><text x="90" y="116" text-anchor="middle" fill="#fff" font-size="44">99</text></g><g transform="translate(310)"><circle cx="90" cy="80" r="74" fill="#050505" stroke="#c79a24" stroke-width="6"/><text x="90" y="72" text-anchor="middle" fill="#fff" font-size="24">PLEASANT</text><text x="90" y="116" text-anchor="middle" fill="#c79a24" font-size="44">99</text></g><g transform="translate(620)"><circle cx="90" cy="80" r="74" fill="#002e5d" stroke="#fff" stroke-width="6"/><text x="90" y="72" text-anchor="middle" fill="#fff" font-size="25">JOHNSON</text><text x="90" y="116" text-anchor="middle" fill="#fff" font-size="44">96</text></g><g transform="translate(930)"><circle cx="90" cy="80" r="74" fill="#782f40" stroke="#ceb888" stroke-width="6"/><text x="90" y="72" text-anchor="middle" fill="#fff" font-size="28">DANZY</text><text x="90" y="116" text-anchor="middle" fill="#fff" font-size="44">95</text></g></g><g filter="url(#glow)" fill="#fff"><path d="M1320 210l-95 175h95l-55 190 225-265h-112l72-100z"/></g></svg>
