<svg xmlns="http://www.w3.org/2000/svg" viewBox="0 0 1600 900"><rect width="1600" height="900" fill="#061a35"/><path fill="#ed1739" d="M0 0h1600v38H0zM0 830h1600v70H0z"/><g font-family="Arial Black,Arial" fill="#fff"><text x="80" y="125" font-size="34" letter-spacing="10">JNN SCOREBOARD • FINAL</text><text x="75" y="285" font-size="145">WEEK 0</text><text x="80" y="370" font-size="64" fill="#ed1739">THE SEASON HAS A SCORE.</text></g><g transform="translate(80 445)" font-family="Arial,Helvetica" font-size="28" fill="#fff"><g><rect width="450" height="90" rx="8" fill="#102b4c"/><text x="25" y="55" font-weight="700">#24 LOUISVILLE 48</text><text x="25" y="82" font-size="18" fill="#aeb9c7">TROY 0</text></g><g transform="translate(490)"><rect width="450" height="90" rx="8" fill="#102b4c"/><text x="25" y="55" font-weight="700">DUKE 34</text><text x="25" y="82" font-size="18" fill="#aeb9c7">JAMES MADISON 20</text></g><g transform="translate(980)"><rect width="450" height="90" rx="8" fill="#102b4c"/><text x="25" y="55" font-weight="700">MIAMI (OH) 35</text><text x="25" y="82" font-size="18" fill="#aeb9c7">NORTHERN ILLINOIS 21</text></g><g transform="translate(0 120)"><rect width="450" height="90" rx="8" fill="#102b4c"/><text x="25" y="55" font-weight="700">FIU 34</text><text x="25" y="82" font-size="18" fill="#aeb9c7">KENNESAW STATE 31</text></g><g transform="translate(490 120)"><rect width="450" height="90" rx="8" fill="#102b4c"/><text x="25" y="55" font-weight="700">STANFORD 38</text><text x="25" y="82" font-size="18" fill="#aeb9c7">FCS WEST 0</text></g><g transform="translate(980 120)"><rect width="450" height="90" rx="8" fill="#102b4c"/><text x="25" y="55" font-weight="700">VIRGINIA 17</text><text x="25" y="82" font-size="18" fill="#aeb9c7">NC STATE 14</text></g><g transform="translate(0 240)"><rect width="450" height="90" rx="8" fill="#102b4c"/><text x="25" y="55" font-weight="700">MISSOURI STATE 27</text><text x="25" y="82" font-size="18" fill="#aeb9c7">LIBERTY 24</text></g><g transform="translate(490 240)"><rect width="450" height="90" rx="8" fill="#102b4c"/><text x="25" y="55" font-weight="700">EASTERN MICHIGAN 27</text><text x="25" y="82" font-size="18" fill="#aeb9c7">SACRAMENTO STATE 10</text></g><g transform="translate(980 240)"><rect width="450" height="90" rx="8" fill="#102b4c"/><text x="25" y="55" font-weight="700">DELAWARE 21</text><text x="25" y="82" font-size="18" fill="#aeb9c7">WESTERN KENTUCKY 16</text></g></g></svg>
